<svg width="20" height="16" viewBox="0 0 20 16" fill="none" xmlns="http://www.w3.org/2000/svg">
<path fill-rule="evenodd" clip-rule="evenodd" d="M19.4 1.9015C18.6882 2.22698 17.9256 2.43255 17.1292 2.53533C17.9426 2.03854 18.5696 1.2334 18.8746 0.308351C18.112 0.770878 17.2647 1.09636 16.3666 1.2848C15.6549 0.496788 14.6211 0 13.4857 0C11.3166 0 9.55423 1.81585 9.55423 4.04283C9.55423 4.35118 9.58812 4.65953 9.65591 4.96788C6.3853 4.79657 3.47056 3.1863 1.5387 0.736617C1.19977 1.33619 0.996421 2.03854 0.996421 2.77516C0.996421 4.17987 1.69121 5.41328 2.75882 6.13276C2.11487 6.11563 1.50481 5.92719 0.962528 5.63597V5.67024C0.962528 7.64026 2.31822 9.26767 4.13146 9.64454C3.79254 9.73019 3.45361 9.78158 3.09774 9.78158C2.84355 9.78158 2.58936 9.74732 2.35211 9.71306C2.84355 11.3062 4.30092 12.4711 6.02943 12.5054C4.67374 13.5846 2.97912 14.2355 1.13199 14.2355C0.826959 14.2355 0.504982 14.2184 0.199951 14.1842C1.94541 15.3319 4.01284 16 6.23278 16C13.4857 16 17.4511 9.85011 17.4511 4.50535C17.4511 4.33405 17.4342 4.16274 17.4342 3.99143C18.1968 3.42612 18.8746 2.70664 19.4 1.9015Z" fill="white"/>
</svg>
